<?xml version="1.0" standalone="no"?>
<!DOCTYPE svg PUBLIC "-//W3C//DTD SVG 20010904//EN"
 "http://www.w3.org/TR/2001/REC-SVG-20010904/DTD/svg10.dtd">
<svg version="1.0" xmlns="http://www.w3.org/2000/svg"
 width="512.000000pt" height="512.000000pt" viewBox="0 0 512.000000 512.000000"
 preserveAspectRatio="xMidYMid meet">
<metadata>
Created by potrace 1.14, written by Peter Selinger 2001-2017
</metadata>
<g transform="translate(0.000000,512.000000) scale(0.100000,-0.100000)"
fill="#000000" stroke="none">
<path d="M544 5110 c-87 -13 -182 -50 -259 -101 -155 -104 -248 -254 -275
-446 -8 -56 -10 -652 -8 -2058 l3 -1980 28 -82 c66 -196 227 -354 422 -416
l70 -22 2040 0 2040 0 73 27 c104 38 176 83 252 158 76 76 132 167 163 265
l22 70 0 2040 0 2040 -27 73 c-67 185 -204 330 -371 394 -126 48 -75 47 -2162
46 -1078 0 -1983 -4 -2011 -8z m2536 -1094 c214 -49 366 -110 529 -211 122
-75 159 -109 187 -170 29 -62 30 -118 3 -189 -42 -115 -174 -272 -262 -315
-83 -40 -155 -21 -321 87 -44 29 -114 64 -160 79 -74 24 -95 27 -236 27 -174
1 -239 -13 -375 -81 -180 -91 -273 -179 -352 -336 -58 -116 -76 -201 -77 -362
0 -160 18 -245 80 -371 92 -186 285 -335 513 -396 199 -52 476 -9 621 97 66
48 189 105 228 105 76 0 168 -71 247 -190 136 -204 142 -315 26 -422 -153
-142 -454 -273 -726 -314 -119 -19 -313 -14 -450 11 -201 36 -457 146 -635
273 -308 220 -502 508 -578 863 -110 507 13 1008 327 1342 221 234 594 426
936 482 111 18 380 13 475 -9z"/>
</g>
</svg>
