<?xml version="1.0" standalone="no"?>
<!DOCTYPE svg PUBLIC "-//W3C//DTD SVG 20010904//EN"
 "http://www.w3.org/TR/2001/REC-SVG-20010904/DTD/svg10.dtd">
<svg version="1.0" xmlns="http://www.w3.org/2000/svg"
 width="512.000000pt" height="512.000000pt" viewBox="0 0 512.000000 512.000000"
 preserveAspectRatio="xMidYMid meet">
<metadata>
Created by potrace 1.14, written by Peter Selinger 2001-2017
</metadata>
<g transform="translate(0.000000,512.000000) scale(0.100000,-0.100000)"
fill="#000000" stroke="none">
<path d="M2125 4224 c-93 -23 -155 -70 -188 -144 -27 -60 -28 -162 -3 -210 61
-117 194 -152 324 -86 135 69 179 214 99 333 -51 76 -157 125 -232 107z"/>
<path d="M2598 3915 c3 -19 0 -25 -14 -25 -16 0 -16 -2 -4 -10 9 -5 17 -5 20
1 9 13 47 -34 44 -54 -1 -9 2 -17 6 -17 5 0 11 -13 15 -30 4 -16 10 -30 13
-30 4 0 8 -14 9 -32 1 -17 7 -34 12 -37 8 -6 32 -77 36 -111 1 -8 8 -42 15
-75 7 -33 14 -69 15 -80 2 -11 6 -40 10 -65 11 -69 16 -119 18 -185 1 -33 6
-63 12 -67 6 -5 5 -8 -4 -8 -11 0 -11 -3 -1 -15 7 -8 9 -15 4 -15 -5 0 -9 -42
-10 -93 0 -50 -6 -126 -13 -167 -7 -41 -15 -93 -18 -115 -3 -22 -10 -45 -15
-52 -5 -7 -7 -17 -3 -23 4 -6 1 -9 -6 -8 -7 2 -13 -4 -14 -12 0 -20 -33 -60
-73 -88 l-32 -23 0 26 c0 74 -202 810 -255 931 -47 105 -98 139 -143 92 -36
-40 -45 -78 -44 -198 1 -252 104 -767 184 -924 11 -21 16 -42 11 -45 -4 -4
-43 -18 -85 -31 -73 -22 -78 -25 -78 -52 0 -52 68 -97 162 -106 68 -6 80 -16
38 -31 -17 -5 -30 -14 -30 -18 0 -4 14 -31 30 -60 31 -54 63 -83 91 -83 12 0
18 -13 22 -57 18 -165 110 -336 293 -545 180 -205 205 -193 250 118 38 265 27
464 -32 597 -16 35 -16 38 0 56 26 28 36 78 29 142 -6 56 -6 57 -30 48 -52
-20 -59 -9 -18 29 61 56 91 102 105 160 10 36 18 51 27 48 24 -10 173 56 219
97 67 59 88 106 87 197 0 91 -30 186 -108 346 -67 137 -150 251 -274 374 -119
118 -183 154 -266 148 l-57 -3 -25 45 c-14 25 -30 48 -35 51 -5 3 -9 9 -9 13
3 19 -1 24 -15 22 -9 0 -19 6 -21 14 -4 13 -3 13 6 0 9 -13 11 -13 11 1 0 23
-11 30 -26 18 -10 -8 -15 -5 -20 15 -8 33 -23 34 -16 1z m237 -206 c9 -14 4
-18 -25 -21 -16 -2 -25 3 -28 15 -3 12 3 17 22 17 14 0 28 -5 31 -11z m-585
-350 c12 -93 13 -239 1 -239 -13 0 -31 132 -31 236 0 115 15 117 30 3z m677
-1327 c14 -30 17 -66 17 -187 0 -141 -7 -193 -35 -267 -6 -15 -16 -29 -23 -31
-41 -16 -190 118 -249 224 -36 65 -67 155 -67 194 0 19 10 24 78 39 42 9 115
29 162 45 47 15 88 26 93 24 4 -3 15 -21 24 -41z"/>
<path d="M1817 3442 c-96 -99 -169 -444 -146 -694 25 -266 77 -395 182 -451
45 -23 152 -30 229 -14 45 9 45 2 -14 216 -66 242 -148 640 -174 847 -9 71
-17 83 -43 59 -32 -28 -38 -9 -8 23 26 27 35 52 19 52 -4 0 -24 -17 -45 -38z"/>
<path d="M2569 1403 c-10 -11 -14 -45 -14 -112 0 -83 4 -104 26 -151 29 -61
79 -120 102 -120 26 0 42 60 41 150 -1 73 -5 95 -31 151 -41 90 -91 123 -124
82z"/>
<path d="M3228 1223 c-31 -34 -44 -84 -28 -113 14 -27 68 -60 97 -60 28 0 72
57 80 104 5 30 1 40 -25 66 -40 40 -88 41 -124 3z"/>
<path d="M2929 1043 c-15 -46 -15 -210 1 -278 16 -72 72 -181 131 -253 27 -34
54 -62 58 -62 17 0 23 36 28 155 6 141 -4 204 -51 301 -41 86 -110 174 -135
174 -14 0 -23 -12 -32 -37z"/>
</g>
</svg>
